<svg width="400" height="134" viewBox="0 0 400 134" fill="none" xmlns="http://www.w3.org/2000/svg">
<g clip-path="url(#clip0_313_1422)">
<path d="M411.161 61.9243V71.1461L397.894 71.1594L397.881 62.6828L411.161 61.9243Z" fill="currentColor"/>
<path d="M89.3369 0C99.9991 3.77958 114.648 -0.545644 125.337 1.31753C127.103 1.62362 130.996 4.11229 132.668 5.27012C139.852 10.2741 155.651 28.1206 161.671 30.6226C168.2 33.3375 181.243 33.1379 189.35 34.8946C204.026 38.0753 216.441 45.2618 222.661 59.2755L203.571 45.8607C189.39 36.984 172.815 41.3092 157.966 39.5392C152.829 38.927 128.936 20.4151 124.601 15.8636C122.247 13.3882 121.912 11.9509 120.507 9.11624C97.2834 10.8064 71.5175 7.1466 48.6145 9.14286C37.9657 10.0744 19.0627 23.4094 21.3102 34.8813C22.5677 41.3358 33.5242 38.6742 30.0459 44.8093C28.3603 47.7904 18.2867 50.9445 14.755 53.4198C10.8754 56.1347 8.22655 60.2337 5.09611 63.6407C3.90548 64.9316 3.91885 66.4621 1.33691 65.8632V44.1173C1.33691 43.372 10.8754 38.2749 13.1496 34.7083C14.648 32.3527 15.1964 28.9723 16.6145 26.2841C18.5811 22.5311 23.5577 18.3256 22.4205 14.2C21.5376 10.9794 17.2433 10.0878 22.7148 5.94885C31.4105 -0.625494 52.7215 1.87648 63.4372 1.37076L66.6613 0H89.3235H89.3369Z" fill="currentColor"/>
<path d="M400 63.2414V111.99C398.301 111.524 386.662 112.655 386.662 111.99V63.2414C386.662 62.576 398.301 63.7072 400 63.2414Z" fill="currentColor"/>
<path d="M280 108.702C279.693 111.803 278.154 118.404 276.736 121.292C269.458 136.171 231.853 134.867 231.987 114.638C236.455 114.758 241.913 114.026 246.141 115.703C248.816 116.767 248.214 119.349 251.278 119.921C267.05 122.876 264.415 115.676 266.662 104.098C261.231 105.788 260.361 109.767 253.86 110.566C215.96 115.223 226.796 38.0082 266.649 67.1935C264.535 58.3967 273.472 62.8949 280 61.9234C278.917 76.9752 281.472 93.8901 280 108.702ZM251.612 71.4389C241.057 73.8477 241.191 97.6032 251.626 99.8789C271.198 104.151 271.92 66.8076 251.612 71.4389Z" fill="currentColor"/>
<path d="M332.923 67.6199C339.585 73.5288 333.23 102.168 338.662 112.003C335.331 111.577 330.555 112.815 327.545 111.804C325.391 111.072 324.414 106.8 323.344 106.76C322.956 106.747 319.21 110.273 316.976 110.992C303.826 115.264 285.899 110.153 291.264 93.4781C294.755 82.6584 313.525 85.5064 320.441 81.4739C328.187 76.9624 317.23 69.2435 308.281 73.4357C306.02 74.5003 305.699 77.3883 304.388 77.7609C300.856 78.7457 295.572 77.2419 292 76.4167C293.939 60.7794 324.294 59.9676 332.923 67.6199ZM322.662 89.592C316.776 89.7917 300.615 91.2689 304.655 100.106C309.217 110.074 327.357 100.864 322.662 89.592Z" fill="currentColor"/>
<path d="M11.999 61.9238C13.4706 62.1634 18.3268 61.5512 18.6746 61.9238C19.4639 62.7489 16.8953 68.1654 20.6545 67.2205C21.8184 66.9278 21.1897 65.2775 22.2866 64.5855C30.5274 59.3287 44.2933 57.2792 48.0258 68.5248C49.5375 69.5096 54.8886 62.2299 58.6211 61.2318C67.6779 58.7963 81.3368 62.363 81.3368 73.1428V110.699H71.999V71.8252C71.999 68.9373 64.106 67.0209 61.0157 67.4734C57.6846 67.9525 50.6612 72.6637 50.6612 75.7778V110.699H42.6612V78.4129C42.6612 68.6578 32.3335 63.5075 24.6144 69.8024C23.7448 70.521 19.999 76.6695 19.999 77.0954V110.699H11.999V61.9504V61.9238Z" fill="currentColor"/>
<path d="M214.193 106.268C202.822 118.245 179.21 113.68 173.966 97.5374C166.902 75.7915 182.822 53.4734 206.648 62.6029C222.916 68.8445 224.869 95.0354 214.193 106.268ZM194.354 67.4339C176.789 69.5233 174.488 109.502 200.588 105.323C217.832 102.568 215.879 64.8653 194.354 67.4339Z" fill="currentColor"/>
<path d="M109.003 60.9658C130.916 57.7319 139.585 73.3825 137.338 92.9059C134.783 114.958 103.518 119.39 93.0569 101.091C84.6154 86.3183 90.368 63.7207 109.017 60.9791L109.003 60.9658ZM110.328 67.4736C94.4215 70.4547 94.2743 102.767 110.074 105.323C136.829 109.661 134.876 62.8556 110.328 67.4736Z" fill="currentColor"/>
<path d="M348 64.5588C354.542 65.5303 363.452 61.0321 361.338 69.8289C364.977 70.6939 363.786 67.5931 366.087 66.0227C369.311 63.8135 378.221 62.5758 380.789 65.7965C381.913 67.2205 379.077 76.0838 378.635 76.4165C377.659 77.1618 370.662 71.6788 365.324 78.3729C364.736 79.1048 362.662 83.1639 362.662 83.6563V111.99H348V64.5588Z" fill="currentColor"/>
<path d="M150.662 68.5252C150.261 68.1393 145.458 68.8047 143.986 68.5252V61.9243C156.147 64.8388 148 53.4868 150.876 48.9619C151.117 48.5893 156.695 46.4466 157.98 46.1006C159.719 46.074 157.953 61.2456 158.662 61.9376C159.103 62.3635 165.016 61.6182 166.675 61.9243V68.5252H158.662V100.811C158.662 101.384 161.271 103.486 162.301 103.832C167.371 105.549 168.869 101.011 168 110.699C163.679 111.471 150.662 110.833 150.662 104.764C150.662 99.8132 151.986 69.7895 150.662 68.5252Z" fill="currentColor"/>
</g>
<defs>
<clipPath id="clip0_313_1422">
<rect width="400" height="133.084" fill="white"/>
</clipPath>
</defs>
</svg>
